<?xml version="1.0" encoding="UTF-8" standalone="no"?>
<!-- Created with Inkscape (http://www.inkscape.org/) -->

<svg
   width="512.0px"
   height="512.0px"
   viewBox="0 0 512.0 512.0"
   version="1.1"
   id="SVGRoot"
   sodipodi:docname="D12.svg"
   inkscape:version="1.2.2 (732a01da63, 2022-12-09)"
   xmlns:inkscape="http://www.inkscape.org/namespaces/inkscape"
   xmlns:sodipodi="http://sodipodi.sourceforge.net/DTD/sodipodi-0.dtd"
   xmlns="http://www.w3.org/2000/svg"
   xmlns:svg="http://www.w3.org/2000/svg">
  <sodipodi:namedview
     id="namedview1968"
     pagecolor="#505050"
     bordercolor="#ffffff"
     borderopacity="1"
     inkscape:showpageshadow="0"
     inkscape:pageopacity="0"
     inkscape:pagecheckerboard="1"
     inkscape:deskcolor="#505050"
     inkscape:document-units="px"
     showgrid="true"
     inkscape:zoom="0.914906"
     inkscape:cx="237.72934"
     inkscape:cy="125.14947"
     inkscape:window-width="1278"
     inkscape:window-height="1360"
     inkscape:window-x="1273"
     inkscape:window-y="0"
     inkscape:window-maximized="0"
     inkscape:current-layer="layer1">
    <inkscape:grid
       type="xygrid"
       id="grid1974" />
  </sodipodi:namedview>
  <defs
     id="defs1963" />
  <g
     inkscape:label="Layer 1"
     inkscape:groupmode="layer"
     id="layer1">
    <g
       id="g2094"
       transform="translate(55.979447,-80.646609)">
      <path
         d="m 200.03255,153.01661 c -0.688,0 -1.37466,0.10667 -2.044,0.32 l -104.045328,33.8 c -1.336,0.44 -2.48,1.26667 -3.306667,2.41333 l -64.307998,88.49334 c -0.830667,1.14666 -1.269333,2.49333 -1.269333,3.89333 v 109.4 c 0,1.41333 0.433333,2.76 1.255999,3.89333 l 64.305332,88.50666 c 0.826667,1.13334 1.969334,1.96 3.305333,2.4 l 104.038662,33.81334 c 1.336,0.44 2.74934,0.44 4.088,0 l 104.048,-33.81334 c 1.336,-0.44 2.47867,-1.26666 3.30533,-2.4 l 64.30533,-88.49333 c 0.82,-1.12 1.27067,-2.50666 1.27067,-3.88 V 281.94994 c 0,-1.41333 -0.43467,-2.74666 -1.256,-3.88 l -64.30666,-88.50666 c -0.82534,-1.13334 -1.96934,-1.96 -3.30534,-2.4 L 202.07655,153.33661 c -0.668,-0.21333 -1.35733,-0.32 -2.044,-0.32 z m -0.024,380.49333 c -2.064,0 -4.128,-0.32 -6.13333,-0.97334 L 89.837889,498.70994 c -4.009334,-1.30667 -7.438667,-3.8 -9.917334,-7.2 L 15.615224,403.00327 c -2.474667,-3.4 -3.782667,-7.44 -3.782667,-11.66666 v -109.4 c 0,-4.21333 1.313333,-8.25333 3.797333,-11.66667 l 64.307999,-88.50666 c 2.478666,-3.4 5.909333,-5.89333 9.918666,-7.2 l 104.045335,-33.8 c 4.012,-1.30667 8.252,-1.30667 12.264,0 l 104.03733,33.82667 c 4.008,1.29333 7.43733,3.78666 9.916,7.19999 l 64.30533,88.50667 c 2.476,3.4 3.784,7.44 3.784,11.65333 v 109.41333 c 0,4.21334 -1.31467,8.24 -3.79867,11.66667 l -64.30533,88.48 c -2.47733,3.41333 -5.908,5.90666 -9.91733,7.2 L 206.14055,532.5366 c -2.00666,0.65334 -4.06933,0.97334 -6.132,0.97334"
         style="fill:#ffffff;fill-opacity:1;fill-rule:nonzero;stroke:none;stroke-width:0.133333"
         id="path840" />
      <path
         d="m 273.57522,419.21661 42.58,-115.29333 54.29866,-22.64 -57.46,13.65333 c -1.48933,0.34667 -2.852,1.10667 -3.936,2.2 -1.00133,1 -1.728,2.24 -2.112,3.6 l -33.37066,118.48"
         style="fill:#ffffff;fill-opacity:1;fill-rule:nonzero;stroke:none;stroke-width:0.133333"
         id="path842" />
      <path
         d="m 274.61922,431.18994 c -0.79734,-1.30667 -1.94134,-2.37333 -3.30667,-3.06667 -1.26,-0.64 -2.668,-0.94666 -4.08267,-0.89333 l -123.29999,4.86667 123.11866,4.88 38.29333,44.63999 -30.72266,-50.42666"
         style="fill:#ffffff;fill-opacity:1;fill-rule:nonzero;stroke:none;stroke-width:0.133333"
         id="path844" />
      <path
         d="m 186.72055,228.33661 -99.869328,66.52 -57.247999,-13.6 54.521332,22.73333 c 1.412,0.58667 2.961334,0.77334 4.472,0.53334 1.4,-0.22667 2.72,-0.8 3.832,-1.68 l 94.291995,-74.50667"
         style="fill:#ffffff;fill-opacity:1;fill-rule:nonzero;stroke:none;stroke-width:0.133333"
         id="path846" />
      <path
         d="m 91.740555,312.25661 33.574665,119.12 -31.377332,51.26666 39.225332,-45.85333 c 0.992,-1.16 1.644,-2.57333 1.88267,-4.08 0.22133,-1.4 0.0827,-2.84 -0.40667,-4.16 L 91.740555,312.25661"
         style="fill:#ffffff;fill-opacity:1;fill-rule:nonzero;stroke:none;stroke-width:0.133333"
         id="path848" />
      <path
         d="m 195.26989,216.32328 c -0.12267,1.53333 0.18,3.05333 0.87466,4.42666 0.64267,1.25334 1.6,2.33334 2.77867,3.12 l 100.83733,67.25334 -94.968,-75.02667 -4.75866,-58.65333 -4.764,58.88"
         style="fill:#ffffff;fill-opacity:1;fill-rule:nonzero;stroke:none;stroke-width:0.133333"
         id="path850" />
    </g>
  </g>
</svg>
