<?xml version="1.0" encoding="UTF-8" standalone="no"?>
<!-- Created with Inkscape (http://www.inkscape.org/) -->

<svg
   width="512.0px"
   height="512.0px"
   viewBox="0 0 512.0 512.0"
   version="1.1"
   id="SVGRoot"
   sodipodi:docname="D20.svg"
   inkscape:version="1.2.2 (732a01da63, 2022-12-09)"
   xmlns:inkscape="http://www.inkscape.org/namespaces/inkscape"
   xmlns:sodipodi="http://sodipodi.sourceforge.net/DTD/sodipodi-0.dtd"
   xmlns="http://www.w3.org/2000/svg"
   xmlns:svg="http://www.w3.org/2000/svg">
  <sodipodi:namedview
     id="namedview1968"
     pagecolor="#505050"
     bordercolor="#ffffff"
     borderopacity="1"
     inkscape:showpageshadow="0"
     inkscape:pageopacity="0"
     inkscape:pagecheckerboard="1"
     inkscape:deskcolor="#505050"
     inkscape:document-units="px"
     showgrid="true"
     inkscape:zoom="0.914906"
     inkscape:cx="237.72934"
     inkscape:cy="125.14947"
     inkscape:window-width="1278"
     inkscape:window-height="1360"
     inkscape:window-x="1273"
     inkscape:window-y="0"
     inkscape:window-maximized="0"
     inkscape:current-layer="layer1">
    <inkscape:grid
       type="xygrid"
       id="grid1974" />
  </sodipodi:namedview>
  <defs
     id="defs1963" />
  <g
     inkscape:label="Layer 1"
     inkscape:groupmode="layer"
     id="layer1">
    <g
       id="g2028"
       transform="translate(-13.972941,26.46826)">
      <path
         d="m 101.57643,136.13008 c 0,-2.36 1.26666,-4.56 3.30666,-5.73334 L 266.67242,36.983413 c 1.02,-0.586667 2.164,-0.88 3.30667,-0.88 1.144,0 2.28667,0.293333 3.30667,0.88 l 161.78399,93.413327 c 2.04,1.17334 3.30667,3.37334 3.30534,5.72 l -0.004,186.82667 c 0,2.36 -1.268,4.54666 -3.308,5.72 l -161.78933,93.41333 c -2.03867,1.18666 -4.57334,1.18666 -6.612,0 l -161.784,-93.4 c -2.04,-1.18667 -3.30667,-3.37333 -3.30667,-5.73333 z m -3.312002,203.99999 161.783992,93.4 c 3.05867,1.77333 6.488,2.65333 9.91867,2.65333 3.42933,0 6.86133,-0.88 9.92,-2.65333 l 161.78933,-93.4 c 6.11867,-3.53333 9.92,-10.12 9.92,-17.18666 l 0.005,-186.81333 c 10e-4,-7.06667 -3.8,-13.65334 -9.91866,-17.18667 l -161.784,-93.413331 c -6.11733,-3.533333 -13.72,-3.533333 -19.83867,0 L 98.269761,118.94341 c -6.118667,3.53333 -9.92,10.12 -9.92,17.18667 l -0.0053,186.81333 c 0,7.06666 3.801333,13.65333 9.92,17.18666"
         style="fill:#ffffff;fill-opacity:1;fill-rule:nonzero;stroke:none;stroke-width:0.133333"
         id="path820" />
      <path
         d="M 268.08176,86.116745 394.63775,297.17007 c -0.024,-0.04 -93.50133,-168.35999 -116.21199,-209.239992 L 429.51242,130.74341 273.81776,78.183411 269.98042,38.783412 266.14709,78.210078 106.53643,133.45008 c 0.14666,-0.0533 138.22133,-40.493336 161.54533,-47.333335"
         style="fill:#ffffff;fill-opacity:1;fill-rule:nonzero;stroke:none;stroke-width:0.133333"
         id="path822" />
      <path
         d="m 155.06043,312.07674 c 76.38799,3.41333 153.86266,3.38667 230.25066,0 -76.388,-3.4 -153.86267,-3.42667 -230.25066,0"
         style="fill:#ffffff;fill-opacity:1;fill-rule:nonzero;stroke:none;stroke-width:0.133333"
         id="path824" />
      <path
         d="M 135.81509,316.59674 268.26842,417.9434 C 268.14309,417.8501 160.85776,327.07674 141.96709,311.11674 l 113.22267,-204.24 c -0.0333,0.0533 -92.80133,154.42667 -116.60267,194.05333 l -34.48133,-163.25333 28.072,172.24 -28.23067,15.85333 31.868,-9.17333"
         style="fill:#ffffff;fill-opacity:1;fill-rule:nonzero;stroke:none;stroke-width:0.133333"
         id="path826" />
      <path
         d="M 399.47509,309.85007 271.99776,417.9434 404.02442,316.67674 l 30.59867,9.30667 -26.86667,-16.08 26.68,-173.4 -34.96133,173.34666"
         style="fill:#ffffff;fill-opacity:1;fill-rule:nonzero;stroke:none;stroke-width:0.133333"
         id="path828" />
    </g>
  </g>
</svg>
