<?xml version="1.0" encoding="UTF-8" standalone="no"?>
<!-- Created with Inkscape (http://www.inkscape.org/) -->

<svg
   width="512.0px"
   height="512.0px"
   viewBox="0 0 512.0 512.0"
   version="1.1"
   id="SVGRoot"
   sodipodi:docname="D8.svg"
   inkscape:version="1.2.2 (732a01da63, 2022-12-09)"
   xmlns:inkscape="http://www.inkscape.org/namespaces/inkscape"
   xmlns:sodipodi="http://sodipodi.sourceforge.net/DTD/sodipodi-0.dtd"
   xmlns="http://www.w3.org/2000/svg"
   xmlns:svg="http://www.w3.org/2000/svg">
  <sodipodi:namedview
     id="namedview1968"
     pagecolor="#505050"
     bordercolor="#ffffff"
     borderopacity="1"
     inkscape:showpageshadow="0"
     inkscape:pageopacity="0"
     inkscape:pagecheckerboard="1"
     inkscape:deskcolor="#505050"
     inkscape:document-units="px"
     showgrid="true"
     inkscape:zoom="0.914906"
     inkscape:cx="237.72934"
     inkscape:cy="125.14947"
     inkscape:window-width="1278"
     inkscape:window-height="1360"
     inkscape:window-x="1273"
     inkscape:window-y="0"
     inkscape:window-maximized="0"
     inkscape:current-layer="layer1">
    <inkscape:grid
       type="xygrid"
       id="grid1974" />
  </sodipodi:namedview>
  <defs
     id="defs1963" />
  <g
     inkscape:label="Layer 1"
     inkscape:groupmode="layer"
     id="layer1">
    <g
       id="g2202"
       transform="translate(43.956358,-7.4150731)">
      <path
         d="m 379.9503,355.46174 c 0,2.36 -1.26666,4.56 -3.30666,5.73333 l -161.29333,93.10667 c -2.04,1.18666 -4.57333,1.18666 -6.61333,0 L 47.443646,361.19507 c -2.04,-1.17333 -3.306666,-3.37333 -3.306666,-5.73333 V 217.24841 c 0,-1.92 0.84,-3.74667 2.293333,-5.01333 L 207.72364,73.288412 c 2.50667,-2.159999 6.13334,-2.159999 8.64,0 l 161.28,138.946668 c 1.46666,1.26666 2.30666,3.09333 2.30666,5.01333 z m 6.33334,-153.24 L 224.99031,63.261746 c -7.50667,-6.453333 -18.4,-6.453333 -25.89333,0 L 37.803647,202.22174 c -4.373334,3.77334 -6.893334,9.25334 -6.893334,15.02667 v 138.21333 c 0,7.06667 3.8,13.65333 9.92,17.18666 l 161.293327,93.10667 c 3.05334,1.77333 6.49334,2.65333 9.92,2.65333 3.42667,0 6.85334,-0.88 9.92,-2.65333 L 383.25697,372.6484 c 6.10667,-3.53333 9.92,-10.11999 9.92,-17.18666 V 217.24841 c 0,-5.77333 -2.52,-11.25333 -6.89333,-15.02667"
         style="fill:#ffffff;fill-opacity:1;fill-rule:nonzero;stroke:none;stroke-width:0.133333"
         id="path810" />
      <path
         d="m 61.883646,363.10174 c 99.626664,4.56 200.693324,4.52 300.319994,0 -99.62667,-4.52 -200.69333,-4.56 -300.319994,0"
         style="fill:#ffffff;fill-opacity:1;fill-rule:nonzero;stroke:none;stroke-width:0.133333"
         id="path812" />
      <path
         d="m 208.81698,77.861746 c -26.93334,43.399994 -55.66667,91.333334 -81.77334,135.439994 -27.506662,44.90667 -54.173328,90.76 -76.039994,138.74667 30.506666,-43.01334 56.759994,-89.10667 81.773334,-135.44 25.01333,-44.70667 52.05333,-93.70667 76.04,-138.746664"
         style="fill:#ffffff;fill-opacity:1;fill-rule:nonzero;stroke:none;stroke-width:0.133333"
         id="path814" />
      <path
         d="m 214.81698,77.315079 c 24.05333,45.173331 51.11999,94.200001 76.19999,139.013331 25.06667,46.44 51.36,92.61333 81.92,135.72 -21.92,-48.08 -48.64,-94.01334 -76.2,-139.01333 -26.13333,-44.17334 -54.97333,-92.26667 -81.91999,-135.720001"
         style="fill:#ffffff;fill-opacity:1;fill-rule:nonzero;stroke:none;stroke-width:0.133333"
         id="path816" />
    </g>
  </g>
</svg>
